<svg xmlns="http://www.w3.org/2000/svg" xmlns:xlink="http://www.w3.org/1999/xlink" width="40.638" height="43.528" viewBox="0 0 40.638 43.528">
  <defs>
    <clipPath id="clip-path">
      <rect id="Rectangle_374" data-name="Rectangle 374" width="40.638" height="43.528" fill="#fff"/>
    </clipPath>
  </defs>
  <g id="Group_18" data-name="Group 18" transform="translate(0 0)">
    <g id="Group_18-2" data-name="Group 18" transform="translate(0 0)" clip-path="url(#clip-path)">
      <path id="Path_2720" data-name="Path 2720" d="M18.707,0h.255a4.136,4.136,0,0,0,.363.264Q28.3,5.454,37.289,10.633a.655.655,0,0,1,.382.66c-.012,5-.006,10-.015,15a.973.973,0,0,0,.3.745,8.431,8.431,0,0,1,2.025,3.249c.28.851.442,1.74.657,2.613v1.785a1.363,1.363,0,0,0-.079.191,24.853,24.853,0,0,1-.624,2.454,9.812,9.812,0,0,1-8.681,6.194,9.682,9.682,0,0,1-7.141-2.694.407.407,0,0,0-.581-.068c-1.426.84-2.866,1.654-4.29,2.5a.689.689,0,0,1-.8,0Q9.431,38.041.405,32.846A.682.682,0,0,1,0,32.16Q.018,21.749,0,11.337a.715.715,0,0,1,.42-.723Q9.391,5.452,18.348.266A3.871,3.871,0,0,0,18.707,0M2.586,13.838c-.008.171-.015.266-.015.362q0,8.287-.007,16.575a.532.532,0,0,0,.317.527q7.151,4.117,14.294,8.246c.1.058.21.1.345.17.008-.159.017-.257.017-.355q0-8.267.008-16.533a.561.561,0,0,0-.338-.558q-4.673-2.683-9.336-5.38L2.586,13.838m21.04,19.879a7.221,7.221,0,1,0,7.253-7.2,7.245,7.245,0,0,0-7.253,7.2M35.087,13.847c-.2.112-.335.187-.469.264q-7.054,4.073-14.113,8.14a.649.649,0,0,0-.375.662q.014,8.16.007,16.321v.523l2.119-1.227c-1.849-3.9-1.739-7.635,1.016-10.945,3.173-3.813,7.249-4.481,11.814-2.738ZM3.88,11.6c.111.07.169.109.229.143q7.233,4.177,14.462,8.359a.452.452,0,0,0,.533,0c1.328-.781,2.665-1.547,4-2.317l1.908-1.1c-.159-.1-.27-.184-.388-.253q-1.173-.68-2.349-1.358-5.93-3.423-11.864-6.839a.663.663,0,0,0-.523-.088C7.894,9.273,5.916,10.422,3.88,11.6m29.91.017c-.1-.069-.161-.11-.222-.145Q26.331,7.288,19.1,3.1a.454.454,0,0,0-.533.011c-1.845,1.074-3.7,2.138-5.546,3.205-.1.06-.2.132-.351.23.25.147.452.268.657.386q6.963,4.019,13.93,8.029a.7.7,0,0,0,.561.081c1.982-1.119,3.949-2.263,5.975-3.433" transform="translate(0 0)" fill="#fff"/>
      <path id="Path_2721" data-name="Path 2721" d="M47.56,58.447l-3.5-3.611,1.828-1.752,1.647,1.8,4.215-4.168,1.788,1.818L47.56,58.447" transform="translate(-17.943 -20.654)" fill="#fff"/>
    </g>
  </g>
</svg>
