<svg xmlns="http://www.w3.org/2000/svg" xmlns:xlink="http://www.w3.org/1999/xlink" width="39.553" height="39.5" viewBox="0 0 39.553 39.5">
  <defs>
    <clipPath id="clip-path">
      <rect id="Rectangle_362" data-name="Rectangle 362" width="39.553" height="39.5" fill="#fff"/>
    </clipPath>
  </defs>
  <g id="Group_5" data-name="Group 5" clip-path="url(#clip-path)">
    <path id="Path_2698" data-name="Path 2698" d="M21.283,39.5c-.85-.147-1.717-.23-2.546-.452-6.8-1.826-11.067-6.164-12.7-13.025a15.838,15.838,0,0,1,.2-7.793c.076-.286.01-.376-.243-.476a9,9,0,0,1-5.838-7A9.176,9.176,0,0,1,17.805,5.988c.036.092.081.18.1.231,1.043-.167,2.047-.376,3.062-.482a16.121,16.121,0,0,1,9.753,1.987,16.532,16.532,0,0,1,8.6,12.177A16.893,16.893,0,0,1,26.046,39.147c-.7.145-1.412.237-2.118.354Zm15.431-18.06a13.059,13.059,0,0,0-3.889-8.573A13.817,13.817,0,0,0,19.166,8.914c-.755.169-.751.18-.806.979-.011.16-.047.319-.068.479a9.14,9.14,0,0,1-8.764,7.962c-.3.006-.4.114-.47.377a13.773,13.773,0,0,0,.035,7.853,14.043,14.043,0,0,0,16.075,9.864c6.662-1.181,11.566-7.058,11.546-14.986M9.2,2.83A6.346,6.346,0,1,0,15.55,9.206,6.38,6.38,0,0,0,9.2,2.83" transform="translate(0 -0.001)" fill="#fff"/>
    <path id="Path_2699" data-name="Path 2699" d="M88.136,59.592h.758c2.1,0,4.2,0,6.3,0a1.408,1.408,0,0,1,0,2.816q-4.23.008-8.46,0a1.374,1.374,0,0,1-1.415-1.418q-.006-4.23,0-8.46a1.408,1.408,0,0,1,2.816,0c.006,2.174,0,4.347,0,6.521v.536" transform="translate(-64.121 -38.428)" fill="#fff"/>
    <path id="Path_2700" data-name="Path 2700" d="M34.188,19.876c0,.484.007.968,0,1.452a1.408,1.408,0,0,1-2.816-.01q-.013-1.43,0-2.86a1.408,1.408,0,0,1,2.817.01c.006.469,0,.939,0,1.408" transform="translate(-23.573 -12.824)" fill="#fff"/>
    <path id="Path_2701" data-name="Path 2701" d="M32.815,45.452a1.41,1.41,0,1,1-1.433,1.4,1.393,1.393,0,0,1,1.433-1.4" transform="translate(-23.586 -34.161)" fill="#fff"/>
  </g>
</svg>
