<?xml version="1.0" encoding="utf-8"?>
<!-- Generator: Adobe Illustrator 17.0.0, SVG Export Plug-In . SVG Version: 6.00 Build 0)  -->
<!DOCTYPE svg PUBLIC "-//W3C//DTD SVG 1.1//EN" "http://www.w3.org/Graphics/SVG/1.1/DTD/svg11.dtd">
<svg version="1.1" id="Layer_1" xmlns="http://www.w3.org/2000/svg" xmlns:xlink="http://www.w3.org/1999/xlink" x="0px" y="0px"
	 width="500px" height="500px" viewBox="0 0 500 500" enable-background="new 0 0 500 500" xml:space="preserve">
<g>
	<path fill="#FFFFFF" d="M469.931,137.625c-17.854,9.795-34.802,19.008-51.601,28.486c-1.226,0.692-1.912,3.302-1.926,5.029
		c-0.141,16.999-0.255,34.001,0.004,50.997c0.093,6.087-2.117,9.949-7.508,12.776c-11.946,6.264-23.659,12.972-35.517,19.408
		c-8.625,4.682-15.385,0.691-15.419-9.081c-0.053-14.988-0.014-29.976-0.014-45.587c-1.55,0.622-2.743,0.967-3.807,1.549
		c-15.927,8.713-31.815,17.497-47.773,26.153c-2.431,1.318-3.635,2.726-3.629,5.738c0.1,58.332,0.073,116.665,0.083,174.997
		c0,0.981,0.133,1.963,0.247,3.541c1.631-0.766,2.958-1.303,4.206-1.987c52.864-29.001,105.707-58.039,158.613-86.963
		c3.013-1.647,4.169-3.456,4.13-6.947c-0.193-17.498-0.101-34.999-0.081-52.498c0.008-7.166,3.314-11.209,9.128-11.283
		c5.727-0.073,9.892,4.634,9.901,11.333c0.026,19.666-0.179,39.336,0.119,58.998c0.096,6.363-2.444,10.242-7.807,13.167
		c-28.955,15.786-57.839,31.704-86.75,47.572c-31.246,17.15-62.542,34.212-93.697,51.525c-5.273,2.93-9.699,2.956-14.915-0.048
		c-12.09-6.965-24.434-13.489-36.964-20.35c-0.889,1.671-1.579,2.95-2.252,4.236c-19.896,38.006-50.965,60.464-93.264,67.89
		c-24.629,4.324-47.632-0.649-70.062-10.285c-6.494-2.79-8.932-7.695-6.719-12.922c2.326-5.495,7.589-6.914,14.329-4.027
		c39.469,16.902,77.046,13.206,110.401-13.74c34.218-27.643,46.735-64.756,35.976-107.332
		c-10.796-42.722-39.408-69.485-82.889-77.771c-65.958-12.569-125.777,39.003-124.35,106.126
		c0.297,13.982,3.519,27.374,9.149,40.179c0.536,1.22,1.18,2.4,1.628,3.65c1.861,5.185-0.064,10.077-4.729,12.16
		c-4.653,2.078-9.689,0.318-12.164-4.655c-6.061-12.178-10.155-25.04-11.497-38.576c-3.86-38.939,6.677-73.225,34-101.749
		c13.35-13.937,29.182-24.257,47.497-30.462c3.652-1.237,4.278-3.141,4.269-6.526c-0.096-38.166,0.04-76.333-0.157-114.498
		c-0.034-6.609,2.173-10.709,8.127-13.947c36.868-20.056,73.536-40.48,110.318-60.695c23.352-12.834,46.808-25.479,70.164-38.304
		c4.511-2.477,8.779-2.56,13.243-0.107c60.578,33.288,121.156,66.575,181.763,99.811c5.01,2.747,7.41,6.461,7.336,12.414
		c-0.248,19.83-0.176,39.666-0.032,59.498c0.033,4.485-1.628,7.83-5.245,10.075c-6.229,3.866-13.751-0.749-13.824-8.544
		c-0.131-13.999-0.039-27.999-0.04-41.999C469.931,142.244,469.931,140.438,469.931,137.625z M283.836,411.997
		c0.154-1.687,0.265-2.341,0.265-2.995c0.01-58.648-0.024-117.296,0.103-175.944c0.007-3.401-1.739-4.61-4.165-5.941
		c-52.7-28.911-105.382-57.854-158.073-86.779c-1.408-0.773-2.884-1.421-4.658-2.289c0,34.512,0,68.527,0,102.722
		c1.527-0.127,2.682-0.185,3.827-0.324c60.374-7.32,118.037,31.543,133.882,90.262c5.444,20.175,5.699,40.454,1.276,60.861
		c-0.379,1.751-0.186,4.865,0.854,5.488C265.674,402.165,274.463,406.831,283.836,411.997z M347.853,183.372
		c-15.117-8.301-29.249-16.06-43.38-23.82c-39.685-21.793-79.359-43.606-119.093-65.31c-1.67-0.912-4.405-1.772-5.782-1.038
		c-17.312,9.217-34.466,18.732-52.383,28.568c1.968,1.161,3.324,2.009,4.722,2.778c9.478,5.218,18.966,10.418,28.449,15.626
		c43.041,23.635,86.072,47.288,129.16,70.835c1.662,0.908,4.388,1.75,5.763,1.018C312.632,202.804,329.797,193.283,347.853,183.372z
		 M241.213,59.163c1.213,0.838,1.728,1.264,2.303,1.58c53.55,29.406,107.089,58.832,160.729,88.073
		c1.724,0.94,4.89,0.744,6.696-0.217c14.99-7.971,29.819-16.243,44.689-24.44c1.121-0.618,2.176-1.354,3.853-2.406
		c-2.663-1.486-4.774-2.681-6.901-3.849c-51.653-28.362-103.298-56.74-155.005-85.005c-1.78-0.973-4.711-1.822-6.207-1.031
		C274.772,40.651,258.35,49.769,241.213,59.163z M200.959,81.3c2.437,1.389,3.863,2.227,5.312,3.024
		c22.167,12.194,44.333,24.389,66.507,36.571c30.05,16.509,60.093,33.03,90.19,49.451c1.723,0.94,4.375,2.026,5.794,1.353
		c6.269-2.97,12.245-6.559,19.154-10.382c-6.92-3.813-13.131-7.246-19.351-10.662c-47.706-26.2-95.407-52.41-143.151-78.539
		c-1.559-0.853-4-1.761-5.303-1.134C213.859,73.988,207.857,77.515,200.959,81.3z M397.763,177.271
		c-7.12,3.907-13.228,7.192-19.244,10.636c-0.843,0.483-1.756,1.744-1.764,2.652c-0.113,13.241-0.078,26.484-0.078,40.711
		c7.01-3.859,13.257-7.201,19.371-10.772c0.897-0.524,1.633-2.129,1.642-3.241C397.804,204.334,397.763,191.408,397.763,177.271z"/>
	<path fill="#FFFFFF" d="M105.811,331.99c18.139,0,36.281-0.192,54.417,0.043c30.588,0.397,50.896,32.413,38.131,60.216
		c-6.599,14.373-18,23.33-33.81,24.762c-12.564,1.138-25.293,0.688-37.943,0.512c-5.764-0.08-9.353-4.51-9.037-9.85
		c0.301-5.085,4.064-8.567,9.75-8.629c10.162-0.111,20.326,0.012,30.489-0.05c14.809-0.09,25.744-10.367,25.812-24.168
		c0.068-13.789-10.828-24.152-25.656-24.226c-16.161-0.081-32.322-0.026-48.483-0.012c-1.29,0.001-2.581,0.145-5.211,0.303
		c2.615,2.477,4.596,4.131,6.312,6.026c3.661,4.044,3.69,9.475,0.232,13.071c-3.607,3.752-8.935,4.105-12.982,0.242
		c-7.71-7.36-15.242-14.916-22.63-22.6c-3.751-3.902-3.664-9.064,0.148-13.012c7.289-7.55,14.719-14.97,22.27-22.257
		c3.91-3.773,9.488-3.607,13.034-0.073c3.549,3.537,3.732,9.057,0.037,13.036c-1.768,1.904-4.19,3.199-6.316,4.77
		C104.855,330.725,105.333,331.358,105.811,331.99z"/>
	<path fill="#FFFFFF" d="M63.774,444.593c0.024,4.887-4.288,9.286-9.181,9.367c-4.904,0.08-9.319-4.13-9.488-9.049
		c-0.175-5.086,4.325-9.687,9.408-9.619C59.421,435.356,63.75,439.704,63.774,444.593z"/>
	<path fill="#FFFFFF" d="M488.933,223.985c-0.103,4.766-5.201,9.337-10.155,9.106c-5.037-0.235-9.033-4.603-8.822-9.641
		c0.214-5.1,4.485-9.016,9.603-8.805C484.409,214.844,489.031,219.449,488.933,223.985z"/>
</g>
</svg>
