<svg id="Group_16" data-name="Group 16" xmlns="http://www.w3.org/2000/svg" xmlns:xlink="http://www.w3.org/1999/xlink" width="38.677" height="38.344" viewBox="0 0 38.677 38.344">
  <defs>
    <clipPath id="clip-path">
      <rect id="Rectangle_372" data-name="Rectangle 372" width="38.677" height="38.344" fill="#fff"/>
    </clipPath>
  </defs>
  <g id="Group_16-2" data-name="Group 16" clip-path="url(#clip-path)">
    <path id="Path_2714" data-name="Path 2714" d="M9.156,127.49a2.673,2.673,0,0,1-1.343-.712,2.122,2.122,0,0,1,.861-3.454c1.093-.361,2.222-.613,3.4-.933-.189-.07-.325-.125-.464-.172A16.293,16.293,0,0,1,.41,110a14.909,14.909,0,0,1-.242-5.731A2.123,2.123,0,0,1,2.532,102.4a2.088,2.088,0,0,1,1.878,2.315,12.758,12.758,0,0,0,.521,5.546,12.047,12.047,0,0,0,8.525,8.018c.067.019.139.024.268.045-.186-.713-.365-1.387-.538-2.062a2.181,2.181,0,0,1,1.274-2.723,2.091,2.091,0,0,1,2.758,1.267c.393,1.255.691,2.54,1.024,3.813.35,1.334.7,2.669,1.037,4.006a2.125,2.125,0,0,1-1.6,2.752c-2.544.677-5.094,1.334-7.642,2-.168.044-.338.078-.508.117Z" transform="translate(0 -89.147)" fill="#fff"/>
    <path id="Path_2715" data-name="Path 2715" d="M177.146,75.548a2.473,2.473,0,0,1-1,1.411,2.167,2.167,0,0,1-2.753-.389c-.516-.5-1.024-1-1.537-1.5a.025.025,0,0,0-.022,0q.132,1.219.266,2.445a12.476,12.476,0,0,1-.191,3.678,16.31,16.31,0,0,1-9.788,12.47,2.145,2.145,0,0,1-1.92-3.836,25.147,25.147,0,0,0,2.966-1.77,11.718,11.718,0,0,0,4.486-7.475,12.213,12.213,0,0,0-.275-5.465c-.491.478-.94.97-1.448,1.391a3.7,3.7,0,0,1-1.175.7,2.047,2.047,0,0,1-2.265-.883,2.12,2.12,0,0,1,.085-2.469,4.889,4.889,0,0,1,.373-.425q2.452-2.486,4.908-4.968a2.189,2.189,0,0,1,3.43-.01c1.566,1.548,3.129,3.1,4.7,4.637a3.932,3.932,0,0,1,1.155,1.636Z" transform="translate(-138.468 -58.877)" fill="#fff"/>
    <path id="Path_2716" data-name="Path 2716" d="M20.621,9.422c.688.2,1.345.389,2,.568a2.174,2.174,0,0,1,1.734,1.729,2.119,2.119,0,0,1-2.568,2.489c-2.6-.7-5.2-1.432-7.783-2.186A2.107,2.107,0,0,1,12.521,9.3Q13.578,5.436,14.7,1.59A2.134,2.134,0,0,1,16.718,0a2.16,2.16,0,0,1,2.049,1.39A2.216,2.216,0,0,1,18.8,2.866c-.288,1.011-.569,2.024-.869,3.091.092-.068.142-.1.183-.136a16.525,16.525,0,0,1,21.485-1,2.122,2.122,0,0,1,.418,2.992,2.157,2.157,0,0,1-2.93.478,26.9,26.9,0,0,0-2.922-1.7A12.179,12.179,0,0,0,20.744,9.264c-.033.035-.06.077-.123.158" transform="translate(-10.818 0)" fill="#fff"/>
  </g>
</svg>
