<svg xmlns="http://www.w3.org/2000/svg" xmlns:xlink="http://www.w3.org/1999/xlink" width="52.247" height="36.56" viewBox="0 0 52.247 36.56">
  <defs>
    <clipPath id="clip-path">
      <rect id="Rectangle_371" data-name="Rectangle 371" width="52.247" height="36.56" fill="#fff"/>
    </clipPath>
  </defs>
  <g id="Group_15" data-name="Group 15" transform="translate(0 0)">
    <g id="Group_15-2" data-name="Group 15" transform="translate(0 0)" clip-path="url(#clip-path)">
      <path id="Path_2710" data-name="Path 2710" d="M58.289,30.426a2.077,2.077,0,0,1-2.227,1.231c-1.257-.047-2.517,0-3.774-.018a.479.479,0,0,0-.543.38A6.56,6.56,0,0,1,39.257,32a.447.447,0,0,0-.5-.363q-4.514.015-9.029,0c-.262,0-.367.083-.462.34a6.513,6.513,0,0,1-6.1,4.568,6.61,6.61,0,0,1-6.294-4.216c-.084-.221-.164-.443-.254-.687-1.371,0-2.73.007-4.09,0a1.682,1.682,0,0,1-1.786-1.416,1.655,1.655,0,0,1,1.715-1.943c1.19-.019,2.381,0,3.571,0H16.6A6.653,6.653,0,0,1,19.485,24.3a6.55,6.55,0,0,1,9.769,3.525.554.554,0,0,0,.635.465c2.925-.015,5.85-.01,8.774,0,.274,0,.448-.025.56-.353a6.568,6.568,0,0,1,12.605.079c.026.078.05.157.079.251h3.079v-.514c0-2.518.007-5.037-.01-7.555a1.355,1.355,0,0,0-.242-.742c-.613-.842-1.247-1.67-1.91-2.472a.983.983,0,0,0-.669-.314c-3.979-.019-7.958-.014-11.937-.014-1.5,0-2.085-.6-2.086-2.124q0-5.242,0-10.484V3.386h-.707q-12.422,0-24.844,0a1.676,1.676,0,0,1-1.829-2.019A1.812,1.812,0,0,1,12.173,0H39.925c1.275.456,1.528.825,1.528,2.23V3.366h.635c2,0,4.007.026,6.01-.011a2.022,2.022,0,0,1,2.041,1.284q2.018,4.136,4.112,8.233a22.525,22.525,0,0,0,1.537,2.461c.811,1.176,1.665,2.32,2.5,3.478ZM50.653,13.263a.689.689,0,0,0-.027-.183c-1.018-2.045-2.031-4.094-3.071-6.128a.678.678,0,0,0-.518-.253c-1.546-.02-3.093-.011-4.639-.011h-.92v6.576ZM26.268,29.908a3.263,3.263,0,0,0-3.259-3.293,3.295,3.295,0,1,0,3.259,3.293m15.976-.037A3.278,3.278,0,0,0,45.47,33.2a3.295,3.295,0,0,0,.068-6.589,3.259,3.259,0,0,0-3.294,3.256" transform="translate(-6.043 0)" fill="#fff"/>
      <path id="Path_2711" data-name="Path 2711" d="M.019,31.785a1.654,1.654,0,0,1,1.6-1.393c1.1-.019,2.209-.007,3.314-.007q5.354,0,10.707,0a1.67,1.67,0,0,1,1.7,1.4,1.635,1.635,0,0,1-1.032,1.8,3.139,3.139,0,0,1-1,.142c-2.21.012-4.419.006-6.628.006s-4.419.006-6.628-.006a3.142,3.142,0,0,1-1-.142,1.631,1.631,0,0,1-1.032-1.8" transform="translate(0 -17.02)" fill="#fff"/>
      <path id="Path_2712" data-name="Path 2712" d="M14.819,18.932c-2.345,0-4.69.007-7.035,0a1.623,1.623,0,0,1-1.6-1.38,1.65,1.65,0,0,1,.966-1.8,1.146,1.146,0,0,1,.439-.112c4.842,0,9.683-.016,14.525.012a1.491,1.491,0,0,1,1.374,1.417A1.626,1.626,0,0,1,21.8,18.93c-2.328.007-4.656,0-6.984,0" transform="translate(-3.469 -8.758)" fill="#fff"/>
      <path id="Path_2713" data-name="Path 2713" d="M11.555,48.536c-1.19,0-2.38,0-3.569,0a1.677,1.677,0,1,1-.054-3.342c1.394-.028,2.787-.008,4.181-.008,1.037,0,2.074-.02,3.111.006a1.681,1.681,0,0,1,1.7,2.277,1.655,1.655,0,0,1-1.592,1.066c-1.258.008-2.516,0-3.774,0" transform="translate(-3.462 -25.309)" fill="#fff"/>
    </g>
  </g>
</svg>
