<svg id="Group_14" data-name="Group 14" xmlns="http://www.w3.org/2000/svg" xmlns:xlink="http://www.w3.org/1999/xlink" width="40.078" height="42.313" viewBox="0 0 40.078 42.313">
  <defs>
    <clipPath id="clip-path">
      <rect id="Rectangle_370" data-name="Rectangle 370" width="40.078" height="42.313" fill="#fff"/>
    </clipPath>
  </defs>
  <g id="Group_14-2" data-name="Group 14" clip-path="url(#clip-path)">
    <path id="Path_2702" data-name="Path 2702" d="M18.713,42.313c-.774-.111-1.555-.186-2.32-.338a19.793,19.793,0,0,1-13.9-10.016A19.073,19.073,0,0,1,.089,24.1a19.4,19.4,0,0,1,1.92-10.579A19.786,19.786,0,0,1,13.848,3.193a20.12,20.12,0,0,1,5.8-.982c.069,0,.136-.011.252-.02,0-.45-.026-.9.01-1.346A5.042,5.042,0,0,1,20.115,0,3.289,3.289,0,0,1,20.9.34c1.113.88,2.205,1.787,3.3,2.69.641.529.648,1,.021,1.538C23.112,5.518,22,6.459,20.881,7.4a.243.243,0,0,1-.065.051c-.207.076-.471.262-.606.193s-.228-.382-.242-.594c-.034-.507-.011-1.017-.011-1.6-.721.051-1.419.058-2.1.154A16.633,16.633,0,0,0,7.56,11.033,15.884,15.884,0,0,0,3.442,19.7,16.444,16.444,0,0,0,9.235,35.11a16,16,0,0,0,8.792,3.831A16.622,16.622,0,0,0,28,37.072a2.068,2.068,0,0,1,1.448-.35,1.618,1.618,0,0,1,1.273,1.356,1.586,1.586,0,0,1-.869,1.678,18.285,18.285,0,0,1-4.967,1.962c-1.03.229-2.084.347-3.127.518-.107.017-.211.051-.316.078Z" transform="translate(0)" fill="#fff"/>
    <path id="Path_2703" data-name="Path 2703" d="M50.971,60.426c.718.368.718.368.466,1.11-.111.325-.22.651-.333.975-.166.476-.281.535-.767.37q-2.987-1.007-5.971-2.022-3.491-1.187-6.98-2.38c-.614-.209-.648-.279-.444-.89.1-.3.2-.6.3-.9.254-.746.254-.746,1.044-.57.266-.772.559-1.54.8-2.326a3.054,3.054,0,0,1,2.535-2.3c1.16-.221,2.306-.514,3.457-.778a.807.807,0,0,0,.408-1.166c-.868-1.052-1.727-2.113-2.621-3.143a2.249,2.249,0,0,1-.449-2.379c.327-.948.641-1.9.959-2.851.051-.153.094-.309.147-.484-.113-.048-.2-.089-.283-.12a.452.452,0,0,1-.3-.656q.212-.624.426-1.247c.185-.534.287-.586.815-.408q2.244.76,4.487,1.523l8.464,2.881c.583.2.622.28.424.87q-.158.468-.319.936c-.254.74-.254.74-1.03.53-.3.889-.566,1.8-.919,2.67a4.659,4.659,0,0,1-.913,1.579,3.516,3.516,0,0,1-1.514.762c-1.19.327-2.407.558-3.612.834a.83.83,0,0,0-.392,1.141c.894,1.084,1.779,2.176,2.694,3.243a2.15,2.15,0,0,1,.414,2.2c-.317.994-.655,1.981-.991,2.99M44.8,41.108c-.394,1.2-.778,2.355-1.155,3.515a.9.9,0,0,0,.229.91c.98,1.155,1.938,2.329,2.919,3.483a.93.93,0,0,1,.2,1.056,11.766,11.766,0,0,0-.412,1.208.891.891,0,0,1-.753.664c-1.369.292-2.734.6-4.1.907a1.412,1.412,0,0,0-1.114.764c-.388.962-.712,1.95-1.076,2.968l10.144,3.448c.34-1.021.663-2.009,1-2.994a.967.967,0,0,0-.226-1.021c-.989-1.165-1.956-2.35-2.942-3.518a.87.87,0,0,1-.178-.95c.16-.424.31-.852.439-1.286a.861.861,0,0,1,.726-.636c1.369-.294,2.734-.607,4.1-.906a1.646,1.646,0,0,0,1.316-1.165c.25-.77.523-1.533.783-2.3.077-.228.144-.459.221-.708L44.8,41.108" transform="translate(-27.087 -28.077)" fill="#fff"/>
    <path id="Path_2704" data-name="Path 2704" d="M137.833,56.776a1.455,1.455,0,0,1,1.283.984,8.379,8.379,0,0,1,.413,1.46,1.55,1.55,0,0,1-1.145,1.8,1.573,1.573,0,0,1-1.9-.9,7.5,7.5,0,0,1-.414-1.419,1.631,1.631,0,0,1,1.767-1.921" transform="translate(-100.053 -41.758)" fill="#fff"/>
    <path id="Path_2705" data-name="Path 2705" d="M132.94,105.858a4.592,4.592,0,0,1,.9-1.972,1.531,1.531,0,0,1,1.958-.27,1.561,1.561,0,0,1,.746,1.8,8.075,8.075,0,0,1-.64,1.467,1.553,1.553,0,0,1-1.812.708,1.647,1.647,0,0,1-1.149-1.734" transform="translate(-97.774 -76.036)" fill="#fff"/>
    <path id="Path_2706" data-name="Path 2706" d="M142.342,82.29c-.026.3-.028.606-.083.9a1.615,1.615,0,0,1-1.723,1.379,1.642,1.642,0,0,1-1.478-1.811,10.991,10.991,0,0,1,.094-1.191,1.586,1.586,0,0,1,1.781-1.347,1.619,1.619,0,0,1,1.414,1.7c0,.124-.017.247-.026.371l.019,0" transform="translate(-102.272 -58.995)" fill="#fff"/>
    <path id="Path_2707" data-name="Path 2707" d="M119.469,126.249c.006-.1.009-.138.012-.179.072-1.193,1.8-2.549,2.831-2.223a1.593,1.593,0,0,1,.818,2.5,8.157,8.157,0,0,1-.973,1.063,1.506,1.506,0,0,1-1.757.266,1.522,1.522,0,0,1-.931-1.424" transform="translate(-87.867 -91.051)" fill="#fff"/>
    <path id="Path_2708" data-name="Path 2708" d="M111.775,21.835a1.613,1.613,0,0,1-2.406,1.479,9.034,9.034,0,0,1-1.146-.8,1.6,1.6,0,0,1,1.8-2.642,10.339,10.339,0,0,1,1.184.819,1.4,1.4,0,0,1,.57,1.148" transform="translate(-79.154 -14.456)" fill="#fff"/>
    <path id="Path_2709" data-name="Path 2709" d="M126.688,35.8a2.074,2.074,0,0,1,.247.015,3.005,3.005,0,0,1,1.924,2.846,1.535,1.535,0,0,1-1.122,1.2,1.439,1.439,0,0,1-1.582-.413,7.287,7.287,0,0,1-.941-1.3,1.591,1.591,0,0,1,1.474-2.349" transform="translate(-91.942 -26.332)" fill="#fff"/>
  </g>
</svg>
