<svg id="Group_17" data-name="Group 17" xmlns="http://www.w3.org/2000/svg" xmlns:xlink="http://www.w3.org/1999/xlink" width="32.706" height="42.96" viewBox="0 0 32.706 42.96">
  <defs>
    <clipPath id="clip-path">
      <rect id="Rectangle_373" data-name="Rectangle 373" width="32.706" height="42.96" fill="#fff"/>
    </clipPath>
  </defs>
  <g id="Group_17-2" data-name="Group 17" clip-path="url(#clip-path)">
    <path id="Path_2717" data-name="Path 2717" d="M17.693,0c.408.07.816.143,1.225.211A16.079,16.079,0,0,1,28.88,5.887a15.882,15.882,0,0,1,3.652,8.183,16.44,16.44,0,0,1-3.675,12.977c-4.081,5.144-8.111,10.33-12.164,15.5-.1.129-.21.253-.346.416-.612-.779-1.207-1.532-1.8-2.287Q8.975,33.565,3.408,26.451a15.781,15.781,0,0,1-3.33-8.4A16.132,16.132,0,0,1,3.74,6a16.035,16.035,0,0,1,9.54-5.7C13.88.169,14.489.1,15.093,0ZM16.345,38.845c.121-.143.2-.235.281-.333,3.354-4.276,6.686-8.57,10.07-12.822a14.71,14.71,0,0,0,3.353-7.4,13.828,13.828,0,1,0-27.523-1.8,13.522,13.522,0,0,0,3,8.565Q9.414,30,13.289,34.949l3.057,3.9" transform="translate(0)" fill="#fff"/>
    <path id="Path_2718" data-name="Path 2718" d="M26.835,38.474A11.328,11.328,0,1,1,38.187,27.189,11.332,11.332,0,0,1,26.835,38.474M18.084,26.751a8.791,8.791,0,1,0,9.177-8.389,8.8,8.8,0,0,0-9.177,8.389" transform="translate(-10.511 -10.7)" fill="#fff"/>
    <path id="Path_2719" data-name="Path 2719" d="M37.105,45.845l5.372-5.377,1.756,1.754-7.047,7.05-4.574-4.577,1.681-1.673,2.812,2.824" transform="translate(-22.059 -27.373)" fill="#fff"/>
  </g>
</svg>
